:SAMPLES-PER-SECOND 30
:FULLY-SPECIFIED
:DEGREES
144
root  30.0962 37.8247 -2.21667 -35.5959 81.6185 -30.1223
RightUpLeg  5.17759 -13.9587 1.48421
RightLeg  34.441 -4.76384 -3.74586
RightFoot  -22.7229 0.11627 2.72136
RightToes  0.000482159 0.542163 -0.142577
Spine  17.1191 -0.285904 8.39899
Spine1  15.1579 1.74639 -2.24091
HEad  2.34478 3.09203 -0.976783
LeftShoulder1  9.30015 -14.2571 -45.6557
LeftArm  -17.1809 10.3467 -19.0961
LeftForeArm  27.3514 -72.0253 -34.7419
LeftHand  -0.25398 0.0180481 5.50724
RightShoulder  5.50766 9.95148 34.9721
RightArm  -2.22381 -7.85446 26.8487
RightForeArm  -20.6351 70.6203 38.4599
RightHand  0.240897 -7.7087 -13.8883
LeftUpLeg  -18.8736 6.66255 4.52448
LeftLeg  -1.77214 20.3439 -7.04619
LeftFoot  8.18165 -0.186439 0.640696
LeftToes  1.06246e-005 4.65854e-005 -8.18503e-006
145
root  31.3053 37.434 -2.20727 -31.7171 82.0539 -26.3621
RightUpLeg  2.59901 -13.8509 -0.516749
RightLeg  42.8598 -2.99998 -3.24942
RightFoot  -19.9842 0.456481 8.20679
RightToes  0.000482159 0.542163 -0.142577
Spine  19.5685 -0.104372 6.03276
Spine1  14.5811 1.22618 -0.932495
HEad  0.905282 3.54885 -0.985032
LeftShoulder1  9.71623 -14.7748 -46.3687
LeftArm  -17.5098 7.74363 -18.4375
LeftForeArm  22.4795 -69.512 -29.704
LeftHand  -0.25398 0.0180481 5.50724
RightShoulder  5.68262 10.2123 35.4591
RightArm  -2.50635 -4.83955 26.914
RightForeArm  -24.5247 68.2583 33.2956
RightHand  0.173049 -7.24819 -13.052
LeftUpLeg  -22.363 11.3078 1.16471
LeftLeg  5.96332 12.2846 -4.42804
LeftFoot  14.542 -1.60414 6.62922
LeftToes  1.06246e-005 4.65854e-005 -8.18503e-006
146
root  32.2943 37.1742 -2.29506 -24.6716 82.2695 -19.4866
RightUpLeg  -3.07323 -13.8033 -2.9684
RightLeg  54.0319 -1.3439 -2.43302
RightFoot  -10.4967 -0.0972376 10.032
RightToes  0.000482159 0.542163 -0.142577
Spine  23.4908 0.00353844 4.79048
Spine1  13.6262 1.22238 -0.87771
HEad  -1.34254 3.34706 -1.36665
LeftShoulder1  10.2931 -15.5099 -47.2431
LeftArm  -17.6851 3.3352 -17.4973
LeftForeArm  17.0947 -65.6916 -24.2651
LeftHand  -0.25398 0.0180481 5.50724
RightShoulder  5.9452 10.6603 35.9911
RightArm  -3.96542 -1.27047 26.9019
RightForeArm  -27.3307 65.4754 28.7016
RightHand  0.100181 -6.71723 -11.7935
LeftUpLeg  -26.4707 20.8054 -5.27811
LeftLeg  12.8461 0.250004 -1.62253
LeftFoot  16.3455 -2.83479 11.128
LeftToes  1.06246e-005 4.65854e-005 -8.18503e-006
147
root  32.972 37.0081 -2.43509 -14.7768 82.2642 -10.0836
RightUpLeg  -11.1301 -12.9371 -4.89476
RightLeg  64.6173 -0.697471 -2.25595
RightFoot  1.8312 -0.76788 6.82854
RightToes  0.000482159 0.542163 -0.142577
Spine  28.3282 -0.102276 4.09889
Spine1  13.1947 1.59836 -2.23315
HEad  -4.49281 2.70544 -2.12109
LeftShoulder1  10.8637 -16.2965 -47.8932
LeftArm  -17.8372 -2.80824 -16.6011
LeftForeArm  12.0989 -60.8117 -19.4859
LeftHand  -0.25398 0.0180481 5.50724
RightShoulder  6.203 11.1966 36.2077
RightArm  -5.98256 3.49107 26.7429
RightForeArm  -29.3673 61.9858 24.3684
RightHand  0.00317414 -5.78453 -10.1974
LeftUpLeg  -29.4858 24.4364 -9.26596
LeftLeg  17.5415 -2.50494 -0.426949
LeftFoot  13.6508 -3.10046 13.5341
LeftToes  1.06246e-005 4.65854e-005 -8.18503e-006
148
root  33.4775 36.9393 -2.56779 -6.51984 82.0052 -2.92803
RightUpLeg  -19.4311 -11.6704 -5.76446
RightLeg  71.3892 -0.418147 -2.29877
RightFoot  8.26292 -0.599679 3.68356
RightToes  0.000482159 0.542163 -0.142577
Spine  32.8308 -0.297524 3.74161
Spine1  13.2601 2.00277 -3.71489
HEad  -8.32091 2.05412 -3.09099
LeftShoulder1  11.2331 -17.0374 -47.7305
LeftArm  -18.4013 -9.88093 -16.4774
LeftForeArm  8.38283 -55.6084 -15.8778
LeftHand  -0.25398 0.0180481 5.50724
RightShoulder  6.39653 11.7296 36.0043
RightArm  -7.7793 9.75941 26.1943
RightForeArm  -31.225 57.5382 20.2811
RightHand  -0.0856792 -4.58217 -8.47955
LeftUpLeg  -31.0296 24.7387 -10.823
LeftLeg  19.7095 -1.64546 -0.317896
LeftFoot  11.0661 -2.86511 14.0378
LeftToes  1.06246e-005 4.65854e-005 -8.18503e-006
